<mxfile host="app.diagrams.net" modified="2022-12-08T04:18:02.181Z" agent="5.0 (Macintosh; Intel Mac OS X 10_15_7) AppleWebKit/537.36 (KHTML, like Gecko) Chrome/108.0.0.0 Safari/537.36" etag="-MQevJ92zV0dUzZI-qKd" version="20.5.3" type="github">
  <diagram id="LLkIUu7B0vgxz8H2hBqR" name="Page-1">
    <mxGraphModel dx="1186" dy="1615" grid="1" gridSize="10" guides="1" tooltips="1" connect="1" arrows="1" fold="1" page="1" pageScale="1" pageWidth="850" pageHeight="1100" math="0" shadow="0">
      <root>
        <mxCell id="0" />
        <mxCell id="1" parent="0" />
        <mxCell id="Ya8vrf_3RM9fZCfHisWS-29" style="edgeStyle=orthogonalEdgeStyle;rounded=0;orthogonalLoop=1;jettySize=auto;html=1;exitX=0.25;exitY=0;exitDx=0;exitDy=0;entryX=0.25;entryY=1;entryDx=0;entryDy=0;strokeColor=#000000;strokeWidth=3;endArrow=none;endFill=0;" edge="1" parent="1" source="Ya8vrf_3RM9fZCfHisWS-1" target="Ya8vrf_3RM9fZCfHisWS-25">
          <mxGeometry relative="1" as="geometry" />
        </mxCell>
        <mxCell id="Ya8vrf_3RM9fZCfHisWS-30" style="edgeStyle=orthogonalEdgeStyle;rounded=0;orthogonalLoop=1;jettySize=auto;html=1;exitX=0.5;exitY=0;exitDx=0;exitDy=0;entryX=0.5;entryY=1;entryDx=0;entryDy=0;strokeColor=#808080;strokeWidth=3;endArrow=none;endFill=0;" edge="1" parent="1" source="Ya8vrf_3RM9fZCfHisWS-1" target="Ya8vrf_3RM9fZCfHisWS-25">
          <mxGeometry relative="1" as="geometry">
            <Array as="points">
              <mxPoint x="440" y="400" />
              <mxPoint x="200" y="400" />
            </Array>
          </mxGeometry>
        </mxCell>
        <mxCell id="Ya8vrf_3RM9fZCfHisWS-1" value="Mono Amplifier" style="rounded=0;whiteSpace=wrap;html=1;strokeWidth=2;" vertex="1" parent="1">
          <mxGeometry x="360" y="440" width="160" height="80" as="geometry" />
        </mxCell>
        <mxCell id="Ya8vrf_3RM9fZCfHisWS-2" value="Stereo Amplifier&lt;br&gt;(future)" style="rounded=0;whiteSpace=wrap;html=1;strokeWidth=2;" vertex="1" parent="1">
          <mxGeometry x="560" y="440" width="180" height="100" as="geometry" />
        </mxCell>
        <mxCell id="Ya8vrf_3RM9fZCfHisWS-6" style="edgeStyle=orthogonalEdgeStyle;rounded=0;orthogonalLoop=1;jettySize=auto;html=1;entryX=0.25;entryY=1;entryDx=0;entryDy=0;exitX=0.867;exitY=0.983;exitDx=0;exitDy=0;endArrow=none;endFill=0;strokeWidth=5;strokeColor=#FF0000;exitPerimeter=0;" edge="1" parent="1" source="Ya8vrf_3RM9fZCfHisWS-3" target="Ya8vrf_3RM9fZCfHisWS-1">
          <mxGeometry relative="1" as="geometry" />
        </mxCell>
        <mxCell id="Ya8vrf_3RM9fZCfHisWS-7" style="edgeStyle=orthogonalEdgeStyle;rounded=0;orthogonalLoop=1;jettySize=auto;html=1;exitX=0.625;exitY=1;exitDx=0;exitDy=0;entryX=0.331;entryY=1.013;entryDx=0;entryDy=0;entryPerimeter=0;strokeWidth=5;endArrow=none;endFill=0;exitPerimeter=0;" edge="1" parent="1" source="Ya8vrf_3RM9fZCfHisWS-3" target="Ya8vrf_3RM9fZCfHisWS-1">
          <mxGeometry relative="1" as="geometry">
            <Array as="points">
              <mxPoint x="193" y="500" />
              <mxPoint x="193" y="550" />
              <mxPoint x="413" y="550" />
            </Array>
          </mxGeometry>
        </mxCell>
        <mxCell id="Ya8vrf_3RM9fZCfHisWS-8" style="edgeStyle=orthogonalEdgeStyle;rounded=0;orthogonalLoop=1;jettySize=auto;html=1;exitX=0.75;exitY=1;exitDx=0;exitDy=0;entryX=0.25;entryY=1;entryDx=0;entryDy=0;strokeColor=#FF0000;strokeWidth=5;endArrow=none;endFill=0;" edge="1" parent="1" source="Ya8vrf_3RM9fZCfHisWS-3" target="Ya8vrf_3RM9fZCfHisWS-2">
          <mxGeometry relative="1" as="geometry" />
        </mxCell>
        <mxCell id="Ya8vrf_3RM9fZCfHisWS-9" style="edgeStyle=orthogonalEdgeStyle;rounded=0;orthogonalLoop=1;jettySize=auto;html=1;exitX=0.5;exitY=1;exitDx=0;exitDy=0;entryX=0.35;entryY=0.99;entryDx=0;entryDy=0;entryPerimeter=0;strokeColor=#000000;strokeWidth=5;endArrow=none;endFill=0;" edge="1" parent="1" source="Ya8vrf_3RM9fZCfHisWS-3" target="Ya8vrf_3RM9fZCfHisWS-2">
          <mxGeometry relative="1" as="geometry">
            <Array as="points">
              <mxPoint x="180" y="570" />
              <mxPoint x="623" y="570" />
            </Array>
          </mxGeometry>
        </mxCell>
        <mxCell id="Ya8vrf_3RM9fZCfHisWS-11" style="edgeStyle=orthogonalEdgeStyle;rounded=0;orthogonalLoop=1;jettySize=auto;html=1;exitX=0.25;exitY=1;exitDx=0;exitDy=0;entryX=0;entryY=0.25;entryDx=0;entryDy=0;strokeColor=#FF0000;strokeWidth=5;endArrow=none;endFill=0;" edge="1" parent="1" source="Ya8vrf_3RM9fZCfHisWS-3" target="Ya8vrf_3RM9fZCfHisWS-4">
          <mxGeometry relative="1" as="geometry">
            <Array as="points">
              <mxPoint x="150" y="630" />
              <mxPoint x="110" y="630" />
              <mxPoint x="110" y="790" />
            </Array>
          </mxGeometry>
        </mxCell>
        <mxCell id="Ya8vrf_3RM9fZCfHisWS-3" value="Dist. Block" style="rounded=0;whiteSpace=wrap;html=1;strokeWidth=2;" vertex="1" parent="1">
          <mxGeometry x="120" y="440" width="120" height="60" as="geometry" />
        </mxCell>
        <mxCell id="Ya8vrf_3RM9fZCfHisWS-12" style="edgeStyle=orthogonalEdgeStyle;rounded=0;orthogonalLoop=1;jettySize=auto;html=1;exitX=0;exitY=0.5;exitDx=0;exitDy=0;entryX=0;entryY=0.5;entryDx=0;entryDy=0;strokeColor=#CCCCCC;strokeWidth=3;endArrow=none;endFill=0;" edge="1" parent="1" source="Ya8vrf_3RM9fZCfHisWS-4" target="Ya8vrf_3RM9fZCfHisWS-5">
          <mxGeometry relative="1" as="geometry" />
        </mxCell>
        <mxCell id="Ya8vrf_3RM9fZCfHisWS-13" style="edgeStyle=orthogonalEdgeStyle;rounded=0;orthogonalLoop=1;jettySize=auto;html=1;entryX=0.425;entryY=0.983;entryDx=0;entryDy=0;strokeColor=#000000;strokeWidth=5;endArrow=none;endFill=0;entryPerimeter=0;" edge="1" parent="1" source="Ya8vrf_3RM9fZCfHisWS-4" target="Ya8vrf_3RM9fZCfHisWS-3">
          <mxGeometry relative="1" as="geometry" />
        </mxCell>
        <mxCell id="Ya8vrf_3RM9fZCfHisWS-20" style="edgeStyle=orthogonalEdgeStyle;rounded=0;orthogonalLoop=1;jettySize=auto;html=1;exitX=1;exitY=0.675;exitDx=0;exitDy=0;entryX=0.4;entryY=1.013;entryDx=0;entryDy=0;entryPerimeter=0;strokeColor=#007FFF;strokeWidth=3;endArrow=none;endFill=0;exitPerimeter=0;" edge="1" parent="1" source="Ya8vrf_3RM9fZCfHisWS-4" target="Ya8vrf_3RM9fZCfHisWS-1">
          <mxGeometry relative="1" as="geometry" />
        </mxCell>
        <mxCell id="Ya8vrf_3RM9fZCfHisWS-21" style="edgeStyle=orthogonalEdgeStyle;rounded=0;orthogonalLoop=1;jettySize=auto;html=1;exitX=1;exitY=0.75;exitDx=0;exitDy=0;entryX=0.439;entryY=1;entryDx=0;entryDy=0;entryPerimeter=0;strokeColor=#007FFF;strokeWidth=3;endArrow=none;endFill=0;" edge="1" parent="1" source="Ya8vrf_3RM9fZCfHisWS-4" target="Ya8vrf_3RM9fZCfHisWS-2">
          <mxGeometry relative="1" as="geometry" />
        </mxCell>
        <mxCell id="Ya8vrf_3RM9fZCfHisWS-4" value="Fuse Panel" style="rounded=0;whiteSpace=wrap;html=1;strokeWidth=2;" vertex="1" parent="1">
          <mxGeometry x="130" y="760" width="80" height="120" as="geometry" />
        </mxCell>
        <mxCell id="Ya8vrf_3RM9fZCfHisWS-14" style="edgeStyle=orthogonalEdgeStyle;rounded=0;orthogonalLoop=1;jettySize=auto;html=1;exitX=0;exitY=0.75;exitDx=0;exitDy=0;strokeColor=#000000;strokeWidth=3;endArrow=none;endFill=0;entryX=-0.037;entryY=0.325;entryDx=0;entryDy=0;entryPerimeter=0;" edge="1" parent="1" source="Ya8vrf_3RM9fZCfHisWS-5" target="Ya8vrf_3RM9fZCfHisWS-4">
          <mxGeometry relative="1" as="geometry">
            <mxPoint x="20" y="700" as="targetPoint" />
            <Array as="points">
              <mxPoint x="100" y="975" />
              <mxPoint x="100" y="802" />
              <mxPoint x="127" y="802" />
            </Array>
          </mxGeometry>
        </mxCell>
        <mxCell id="Ya8vrf_3RM9fZCfHisWS-17" style="edgeStyle=orthogonalEdgeStyle;rounded=0;orthogonalLoop=1;jettySize=auto;html=1;entryX=0.5;entryY=1;entryDx=0;entryDy=0;strokeColor=#FF0000;strokeWidth=3;endArrow=none;endFill=0;exitX=0.5;exitY=0;exitDx=0;exitDy=0;" edge="1" parent="1" source="Ya8vrf_3RM9fZCfHisWS-5" target="Ya8vrf_3RM9fZCfHisWS-4">
          <mxGeometry relative="1" as="geometry" />
        </mxCell>
        <mxCell id="Ya8vrf_3RM9fZCfHisWS-19" style="edgeStyle=orthogonalEdgeStyle;rounded=0;orthogonalLoop=1;jettySize=auto;html=1;exitX=1;exitY=0.5;exitDx=0;exitDy=0;strokeColor=#007FFF;strokeWidth=3;endArrow=diamond;endFill=1;entryX=0.5;entryY=1.067;entryDx=0;entryDy=0;entryPerimeter=0;" edge="1" parent="1" source="Ya8vrf_3RM9fZCfHisWS-5" target="Ya8vrf_3RM9fZCfHisWS-22">
          <mxGeometry relative="1" as="geometry">
            <mxPoint x="810" y="810" as="targetPoint" />
          </mxGeometry>
        </mxCell>
        <mxCell id="Ya8vrf_3RM9fZCfHisWS-5" value="Relay" style="rounded=0;whiteSpace=wrap;html=1;strokeWidth=2;" vertex="1" parent="1">
          <mxGeometry x="140" y="930" width="60" height="60" as="geometry" />
        </mxCell>
        <mxCell id="Ya8vrf_3RM9fZCfHisWS-22" value="Remote turn-on&lt;br&gt;lead" style="text;html=1;align=center;verticalAlign=middle;resizable=0;points=[];autosize=1;strokeColor=none;fillColor=none;" vertex="1" parent="1">
          <mxGeometry x="690" y="790" width="110" height="40" as="geometry" />
        </mxCell>
        <mxCell id="Ya8vrf_3RM9fZCfHisWS-24" value="" style="rounded=1;whiteSpace=wrap;html=1;strokeWidth=2;" vertex="1" parent="1">
          <mxGeometry x="120" y="210" width="620" height="150" as="geometry" />
        </mxCell>
        <mxCell id="Ya8vrf_3RM9fZCfHisWS-25" value="Terminal" style="rounded=0;whiteSpace=wrap;html=1;strokeWidth=2;" vertex="1" parent="1">
          <mxGeometry x="155" y="340" width="90" height="40" as="geometry" />
        </mxCell>
        <mxCell id="Ya8vrf_3RM9fZCfHisWS-26" value="" style="ellipse;whiteSpace=wrap;html=1;aspect=fixed;strokeWidth=2;" vertex="1" parent="1">
          <mxGeometry x="290" y="220" width="130" height="130" as="geometry" />
        </mxCell>
        <mxCell id="Ya8vrf_3RM9fZCfHisWS-27" value="" style="ellipse;whiteSpace=wrap;html=1;aspect=fixed;strokeWidth=2;" vertex="1" parent="1">
          <mxGeometry x="460" y="220" width="130" height="130" as="geometry" />
        </mxCell>
      </root>
    </mxGraphModel>
  </diagram>
</mxfile>
